<?xml version="1.0" encoding="UTF-8" standalone="no"?>
<!DOCTYPE svg PUBLIC "-//W3C//DTD SVG 1.1//EN" "http://www.w3.org/Graphics/SVG/1.1/DTD/svg11.dtd">
<svg width="100%" height="100%" viewBox="0 0 90 60" version="1.1" xmlns="http://www.w3.org/2000/svg" xmlns:xlink="http://www.w3.org/1999/xlink" xml:space="preserve" xmlns:serif="http://www.serif.com/" style="fill-rule:evenodd;clip-rule:evenodd;stroke-linejoin:round;stroke-miterlimit:2;">
    <g transform="matrix(1.07693,0,0,1.07693,-3.55271e-15,4.6009)">
        <path d="M77.163,25.727L77.163,42.156C77.163,47.281 73.002,51.442 67.877,51.442L9.286,51.442C4.161,51.442 0,47.281 0,42.156L0,9.286C0,4.161 4.161,0 9.286,0L52.311,0L51.511,0.779L50.869,2.003L50.638,3.406L50.869,4.809L51.511,6.032L52.501,6.996L53.78,7.616L53.782,7.616C54.399,7.799 54.852,7.976 55.156,8.329L55.158,8.332C55.561,8.8 55.782,9.508 56.001,10.543L56.002,10.547L56.567,11.948L57.535,13.044L58.809,13.763L59.139,13.82L59.284,14.732L59.891,15.93L60.831,16.889L62.053,17.53C64.201,18.256 65.548,18.923 66.457,20.017C67.46,21.225 68.029,22.94 68.675,25.612L69.261,26.97L70.228,28.03L71.485,28.721L72.944,28.971L74.403,28.721L75.66,28.03L76.627,26.97L77.163,25.727ZM68.294,0.009C68.575,0.022 68.852,0.047 69.125,0.083L68.902,0.601L68.294,0.009ZM77.163,13.27L77.163,13.458C76.143,14.109 75.312,14.832 74.593,15.668C73.995,16.362 73.45,17.169 72.948,18.148C72.496,17.27 72.004,16.522 71.457,15.864C70.682,14.932 69.761,14.115 68.574,13.377C69.663,12.702 70.54,11.949 71.294,11.073C71.893,10.379 72.437,9.572 72.94,8.594C73.392,9.473 73.884,10.22 74.431,10.879C75.172,11.772 76.048,12.558 77.163,13.27ZM60.297,4.35C60.228,4.262 60.158,4.177 60.087,4.094C59.879,3.853 59.658,3.623 59.42,3.405C59.691,3.156 59.94,2.893 60.169,2.617L60.297,2.461C60.366,2.549 60.437,2.634 60.508,2.717C60.715,2.958 60.936,3.188 61.174,3.405C60.936,3.623 60.715,3.853 60.508,4.094C60.437,4.177 60.367,4.262 60.297,4.35Z" style="fill:rgb(255,32,86);"/>
        <g transform="matrix(1.3774,0,0,1.3774,22.7812,9.19217)">
            <path d="M4.5,5.653C4.5,4.226 6.029,3.323 7.279,4.01L18.819,10.357C20.114,11.069 20.114,12.93 18.819,13.643L7.28,19.99C6.03,20.677 4.501,19.773 4.501,18.347L4.5,5.653Z" style="fill:white;"/>
        </g>
    </g>
    <g transform="matrix(1.63943,0,0,1.63943,54.3427,-3.35682)">
        <path d="M7.195,2.845C7.121,2.5 6.814,2.251 6.462,2.251C6.109,2.251 5.802,2.5 5.728,2.845C5.496,3.941 5.178,4.68 4.738,5.206C4.309,5.722 3.709,6.099 2.788,6.372C2.471,6.466 2.251,6.76 2.251,7.091C2.251,7.422 2.471,7.716 2.788,7.81C3.673,8.072 4.268,8.427 4.704,8.935C5.148,9.451 5.486,10.195 5.728,11.337C5.802,11.682 6.109,11.931 6.461,11.931C6.814,11.931 7.121,11.682 7.195,11.337C7.437,10.194 7.775,9.451 8.219,8.935C8.655,8.427 9.249,8.072 10.136,7.81C10.453,7.716 10.673,7.422 10.673,7.091C10.673,6.76 10.453,6.466 10.136,6.372C9.25,6.11 8.655,5.755 8.219,5.247C7.775,4.731 7.437,3.987 7.195,2.845M15.498,6.096C15.417,5.761 15.114,5.522 14.769,5.522C14.424,5.522 14.121,5.761 14.04,6.096C13.486,8.388 12.899,9.77 12.068,10.734C11.248,11.686 10.121,12.31 8.298,12.926C7.994,13.029 7.788,13.316 7.788,13.636C7.788,13.957 7.994,14.244 8.298,14.347C10.202,14.99 11.344,15.669 12.15,16.639C12.969,17.625 13.512,18.994 14.04,21.176C14.121,21.511 14.424,21.75 14.769,21.75C15.114,21.75 15.417,21.511 15.498,21.176C16.052,18.885 16.64,17.503 17.47,16.539C18.29,15.587 19.417,14.963 21.24,14.347C21.544,14.244 21.75,13.957 21.75,13.636C21.75,13.316 21.544,13.029 21.24,12.926C19.333,12.282 18.193,11.606 17.388,10.636C16.57,9.652 16.028,8.284 15.498,6.096" style="fill:rgb(0,112,255);fill-rule:nonzero;"/>
    </g>
    <g transform="matrix(1.3636,0.365375,-0.365375,1.3636,54.8589,-4.80471)">
        <path d="M12.594,23.258L12.582,23.26L12.511,23.295L12.491,23.299L12.477,23.295L12.406,23.259C12.395,23.256 12.387,23.258 12.382,23.265L12.378,23.275L12.361,23.703L12.366,23.723L12.376,23.736L12.48,23.81L12.495,23.814L12.507,23.81L12.611,23.736L12.623,23.72L12.627,23.703L12.61,23.276C12.607,23.265 12.602,23.259 12.594,23.258M12.858,23.145L12.844,23.147L12.66,23.24L12.65,23.25L12.647,23.261L12.665,23.691L12.67,23.703L12.678,23.711L12.879,23.803C12.892,23.806 12.901,23.804 12.908,23.795L12.912,23.781L12.878,23.167C12.875,23.154 12.868,23.147 12.858,23.145M12.143,23.147C12.134,23.141 12.122,23.144 12.116,23.153L12.11,23.167L12.076,23.781C12.077,23.793 12.082,23.801 12.093,23.805L12.108,23.803L12.309,23.71L12.319,23.702L12.322,23.691L12.34,23.261L12.337,23.249L12.327,23.239L12.143,23.147Z" style="fill:none;fill-rule:nonzero;"/>
    </g>
</svg>
